<svg xmlns="http://www.w3.org/2000/svg" viewBox="0 0 50 50" width="50" height="50">
	<style>
		tspan { white-space:pre }
		.shp0 { fill: #3d2d48 } 
	</style>
	<g id="Layer">
		<path id="Layer" fill-rule="evenodd" class="shp0" d="M50 6L50 48C50 49.16 49.16 50 48 50L2 50C0.84 50 0 49.16 0 48L0 6C0 4.84 0.84 4 2 4L9 4L9 2C9 0.84 9.84 0 11 0L13 0C14.16 0 15 0.84 15 2L15 4L35 4L35 2C35 0.84 35.84 0 37 0L39 0C40.16 0 41 0.84 41 2L41 4L48 4C49.16 4 50 4.84 50 6ZM36.95 2L37 8L39 8L39 2L37 2C36.97 2 36.95 2 36.95 2ZM10.95 2L11 8L13 8L13 2L11 2C10.96 2 10.95 2 10.95 2ZM48 16L2 16L2 48L48 48L48 16ZM48 6L41 6L41 8C41 9.16 40.16 10 39 10L37 10C35.84 10 35 9.16 35 8L35 6L15 6L15 8C15 9.16 14.16 10 13 10L11 10C9.84 10 9 9.16 9 8L9 6L2 6L2 14L48 14L48 6Z" />
		<path id="Layer" fill-rule="evenodd" class="shp0" d="M6 43L6 22C6 21.45 6.45 21 7 21L43 21C43.55 21 44 21.45 44 22L44 43C44 43.55 43.55 44 43 44L7 44C6.45 44 6 43.55 6 43ZM35 28L42 28L42 23L35 23L35 28ZM35 35L42 35L42 30L35 30L35 35ZM35 42L42 42L42 37L35 37L35 42ZM26 28L33 28L33 23L26 23L26 28ZM26 35L33 35L33 30L26 30L26 35ZM26 42L33 42L33 37L26 37L26 42ZM17 28L24 28L24 23L17 23L17 28ZM17 35L24 35L24 30L17 30L17 35ZM17 42L24 42L24 37L17 37L17 42ZM8 28L15 28L15 23L8 23L8 28ZM8 35L15 35L15 30L8 30L8 35ZM8 42L15 42L15 37L8 37L8 42Z" />
	</g>
</svg>