<svg xmlns="http://www.w3.org/2000/svg" viewBox="0 0 153 153"><defs><style>.cls-1{fill:#85d3c1;}.cls-2{fill:none;stroke:#333;stroke-miterlimit:10;stroke-width:7px;}.cls-3{fill:#c7eaff;}.cls-4{fill:#232323;}.cls-5{fill:#ffbc53;}</style></defs><title>Asset 3</title><g id="Layer_2" data-name="Layer 2"><g id="Layer_1-2" data-name="Layer 1"><path class="cls-1" d="M149.5,76.5a73,73,0,1,1-73-73,73,73,0,0,1,73,73"/><circle class="cls-2" cx="76.5" cy="76.5" r="73"/><path class="cls-3" d="M85.32,65.82H40.39A12.48,12.48,0,0,0,27.91,78.3v32a12.48,12.48,0,0,0,12.48,12.48H53.9l-.19,0L62.85,132v-9.15H85.32A12.48,12.48,0,0,0,97.8,110.33v-32A12.48,12.48,0,0,0,85.32,65.82"/><path class="cls-4" d="M62.85,134a2.08,2.08,0,0,1-1.47-.61l-8.54-8.54H40.39a14.58,14.58,0,0,1-14.56-14.56v-32A14.58,14.58,0,0,1,40.39,63.74h21a2.08,2.08,0,0,1,0,4.16h-21A10.41,10.41,0,0,0,30,78.3v32a10.41,10.41,0,0,0,10.4,10.4H53.9A2.08,2.08,0,0,1,55.81,122l5,5v-4.14a2.08,2.08,0,0,1,2.08-2.08H85.32a10.41,10.41,0,0,0,10.4-10.4V96a2.08,2.08,0,1,1,4.16,0v14.35a14.58,14.58,0,0,1-14.56,14.56H64.94V132A2.08,2.08,0,0,1,62.85,134"/><path class="cls-5" d="M102.09,29.63H96.83a28.15,28.15,0,0,0,0,56.3h5.27a28.14,28.14,0,0,0,8.28-1.24L119,93.33v-13a28.15,28.15,0,0,0-16.92-50.65"/><path class="cls-4" d="M119,95.41a2.08,2.08,0,0,1-1.47-.61L109.77,87a30.28,30.28,0,0,1-7.67,1H96.83a30.23,30.23,0,0,1,0-60.46h5.27a30.26,30.26,0,0,1,30.23,30.23A29.9,29.9,0,0,1,129,71.5a30.52,30.52,0,0,1-7.95,9.8v12A2.08,2.08,0,0,1,119,95.41m-8.64-12.8a2.08,2.08,0,0,1,1.47.61l5.09,5.09v-8a2.08,2.08,0,0,1,.83-1.66,26.07,26.07,0,0,0-15.67-46.91H96.83a26.07,26.07,0,0,0,0,52.14h5.27a26.05,26.05,0,0,0,7.67-1.15,2.07,2.07,0,0,1,.61-.09"/><path d="M100,66.4A2.08,2.08,0,0,1,98,64.32v-5a3.94,3.94,0,0,1,3.1-3.86,4.65,4.65,0,1,0-5.67-4.53,2.08,2.08,0,0,1-4.16,0A8.84,8.84,0,0,1,94,44.49a8.74,8.74,0,0,1,6.63-2.35,8.81,8.81,0,0,1,1.46,17.34v4.83A2.08,2.08,0,0,1,100,66.4"/><path d="M100,74.62a2.08,2.08,0,1,1,1.47-.61,2.1,2.1,0,0,1-1.47.61"/><path d="M83,96.19H39.14a2.08,2.08,0,1,1,0-4.16H83a2.08,2.08,0,1,1,0,4.16"/><path d="M83,107.83a2.08,2.08,0,1,1,1.47-.61,2.1,2.1,0,0,1-1.47.61"/><path d="M74.85,107.83H39.14a2.08,2.08,0,1,1,0-4.16H74.85a2.08,2.08,0,1,1,0,4.16"/><path d="M69.51,84.54H39.14a2.08,2.08,0,1,1,0-4.16H69.51a2.08,2.08,0,1,1,0,4.16"/></g></g></svg>