<svg xmlns="http://www.w3.org/2000/svg" viewBox="0 0 151.19 151.19"><defs><style>.cls-1{fill:#85d3c1}.cls-2{fill:#f9d48a}.cls-3{fill:#f5f7fa}.cls-4{fill:#ff958a}.cls-5{fill:#232323}</style></defs><title>Asset 1</title><g id="Layer_2" data-name="Layer 2"><g id="Layer_1-2" data-name="Layer 1"><path d="M148.75,75.6A73.16,73.16,0,1,1,75.6,2.44,73.16,73.16,0,0,1,148.75,75.6" class="cls-1"/><path d="M17.07,31.7V17.07H119.49a73,73,0,0,1,14.68,14.7l0,0v4.76H17.07Z" class="cls-2"/><path d="M134.12,36.58v73.16H75.25c-.12-.83-.27-1.63-.44-2.44A34.12,34.12,0,0,0,21.95,86.62a32.5,32.5,0,0,0-4.88,4.1V36.58Z" class="cls-3"/><rect width="43.9" height="34.14" x="80.47" y="46.33" class="cls-4"/><polygon points="109.74 63.4 95.11 70.72 95.11 56.09 109.74 63.4" class="cls-3"/><path d="M39,148.66a33.87,33.87,0,0,1-23.68-12.09h9a4.89,4.89,0,0,0,4.88-4.88,4.89,4.89,0,0,1,4.88-4.88,4.88,4.88,0,1,0,0-9.75H7.41c-.08-.8-.1-1.61-.1-2.44a33.77,33.77,0,0,1,1.34-9.49,34.23,34.23,0,0,1,8.41-14.41,32.45,32.45,0,0,1,4.88-4.1v16.26a4.41,4.41,0,0,0,4.41,4.41h.93a4.41,4.41,0,0,0,4.41-4.41V98.69A6,6,0,0,1,43.11,96l2,4a4.43,4.43,0,0,0,4,2.44h4.29a4.43,4.43,0,0,1,4,2.44,4.43,4.43,0,0,0,4,2.44H74.82c.17.81.32,1.61.44,2.44a35.38,35.38,0,0,1,.34,4.88c0,.83,0,1.63-.1,2.44H66.62a6,6,0,0,0-5,2.68l-1.32,2a6,6,0,0,1-5,2.68h-.51a6,6,0,0,0-6,6,6,6,0,0,1-3.34,5.39l-3.07,1.56A6,6,0,0,0,39,142.73Z" class="cls-3"/><path d="M74.82,107.3H61.26a4.43,4.43,0,0,1-4-2.44,4.43,4.43,0,0,0-4-2.44H49.06a4.43,4.43,0,0,1-4-2.44l-2-4A6,6,0,0,0,31.7,98.69v4.19a4.41,4.41,0,0,1-4.41,4.41h-.93a4.41,4.41,0,0,1-4.41-4.41V86.62A34.12,34.12,0,0,1,74.82,107.3" class="cls-2"/><rect width="4.88" height="4.88" x="43.89" y="24.39" class="cls-5"/><path d="M78,82.91h48.77v-39H78Zm4.88-34.14h39V78h-39Z" class="cls-5"/><path d="M92.67,74.67,115.19,63.4,92.67,52.14ZM97.54,60l6.74,3.37-6.74,3.37Z" class="cls-5"/><path d="M75.6,0A75,75,0,0,0,30.93,14.63H14.63V30.94a75.43,75.43,0,0,0-8.52,74.4A36.53,36.53,0,0,0,55.4,148.42,75.58,75.58,0,1,0,75.6,0m-39,142.72v3.17A31.55,31.55,0,0,1,21.23,139h3.16a7.32,7.32,0,0,0,7.32-7.32,2.44,2.44,0,0,1,2.44-2.44,7.32,7.32,0,1,0,0-14.63H9.75a31.59,31.59,0,0,1,9.76-22.82v11.09a6.86,6.86,0,0,0,6.85,6.85h.93a6.86,6.86,0,0,0,6.85-6.85V98.69a3.59,3.59,0,0,1,6.8-1.6l2,4a6.82,6.82,0,0,0,6.13,3.79h4.3a2,2,0,0,1,1.77,1.09,6.81,6.81,0,0,0,6.13,3.79H72.74a31.5,31.5,0,0,1,.41,4.88H66.63a8.45,8.45,0,0,0-7,3.77l-1.3,1.95a3.59,3.59,0,0,1-3,1.6h-.5a8.48,8.48,0,0,0-8.47,8.47,3.57,3.57,0,0,1-2,3.21l-3.09,1.54a8.42,8.42,0,0,0-4.68,7.57m-20.06-8.6a31.51,31.51,0,0,1-6.35-14.63h24a2.44,2.44,0,0,1,0,4.88,7.33,7.33,0,0,0-7.32,7.32,2.44,2.44,0,0,1-2.44,2.44Zm7.87-46.18a31.62,31.62,0,0,1,47.22,16.92H61.25a2,2,0,0,1-1.77-1.09A6.81,6.81,0,0,0,53.36,100h-4.3a2,2,0,0,1-1.77-1.09l-2-4a8.47,8.47,0,0,0-16,3.79v4.19a2,2,0,0,1-2,2h-.93a2,2,0,0,1-2-2ZM41.46,78a36.34,36.34,0,0,0-21.95,7.38V39H131.68V107.3H77.3A36.64,36.64,0,0,0,41.46,78M146.32,75.6a70.26,70.26,0,0,1-9.76,35.78V39.82a70.25,70.25,0,0,1,9.76,35.78M75.6,4.88a70.25,70.25,0,0,1,35.78,9.75H39.83A70.07,70.07,0,0,1,75.6,4.88m43,14.63a71.32,71.32,0,0,1,13.09,13.09v1.55H19.51V19.51ZM4.88,75.6a70.08,70.08,0,0,1,9.75-35.77v50a36.62,36.62,0,0,0-5.94,8.63A70.13,70.13,0,0,1,4.88,75.6m36.58,67.13a3.57,3.57,0,0,1,2-3.21L46.53,138a8.42,8.42,0,0,0,4.68-7.57,3.6,3.6,0,0,1,3.59-3.59h.5a8.45,8.45,0,0,0,7-3.77l1.3-1.95a3.59,3.59,0,0,1,3-1.6h6.11a31.72,31.72,0,0,1-31.29,26.82Zm34.14,3.59a70.54,70.54,0,0,1-13.71-1.38A36.57,36.57,0,0,0,78,114.61c0-.82-.07-1.63-.12-2.44H136.1a70.74,70.74,0,0,1-60.5,34.14" class="cls-5"/><rect width="48.77" height="4.88" x="24.39" y="43.89" class="cls-5"/><rect width="39.02" height="4.88" x="34.14" y="53.65" class="cls-5"/><rect width="4.88" height="4.88" x="68.28" y="63.4" class="cls-5"/><rect width="39.02" height="4.88" x="24.39" y="63.4" class="cls-5"/><rect width="48.77" height="4.88" x="78.03" y="87.79" class="cls-5"/><rect width="4.88" height="4.88" x="121.93" y="97.54" class="cls-5"/><rect width="39.02" height="4.88" x="78.03" y="97.54" class="cls-5"/></g></g></svg>