<svg xmlns="http://www.w3.org/2000/svg" viewBox="0 0 39.34 39.32"><defs><style>.cls-1{fill:#b3b3b3}</style></defs><title>Asset 1</title><g id="Layer_2" data-name="Layer 2"><g id="Layer_1-2" data-name="Layer 1"><path d="M19.7,1a18.69,18.69,0,0,1,1.59,37.32,8.87,8.87,0,0,1-1.59.1,18.24,18.24,0,0,1-4.06-.44A18.71,18.71,0,0,1,19.7,1m0-1A19.7,19.7,0,0,0,0,19.65,19.88,19.88,0,0,0,15.43,38.88a19.92,19.92,0,0,0,4.27.44,11.85,11.85,0,0,0,1.76-.09A19.66,19.66,0,0,0,19.7,0" class="cls-1"/><path d="M21.82,15.73a2.19,2.19,0,0,1,1.69-.58,9.77,9.77,0,0,1,2.56.36l.73-3.92a13.81,13.81,0,0,0-4.63-.67,7.58,7.58,0,0,0-3.86.83,4.26,4.26,0,0,0-2.08,2.12,10.18,10.18,0,0,0-.58,4v1.54H12.55v4.48h3.09v14.1a18.24,18.24,0,0,0,4.06.44,8.87,8.87,0,0,0,1.59-.1V23.84h4.1V19.36h-4.1V17.91a3.08,3.08,0,0,1,.53-2.18" class="cls-1"/></g></g></svg>