<svg xmlns="http://www.w3.org/2000/svg" width="50" height="50" viewBox="0 0 50 50"><style>.shp0{fill:#fb7248}</style><path id="Layer" fill-rule="evenodd" d="M49 13L49 24L47 24L47 49L3 49L3 24L1 24L1 13L12.16 13C9.23 11.73 7 9.31 7 6C7 2.87 8.99 1 12.32 1C16.53 1 18.51 4.41 20.25 7.42C21.67 9.88 22.9 12 25 12C27.1 12 28.33 9.88 29.75 7.42C31.49 4.41 33.47 1 37.68 1C41.01 1 43 2.87 43 6C43 9.31 40.77 11.73 37.85 13L49 13ZM29.09 12L33 12C36.93 12 41 9.76 41 6C41 4.01 39.88 3 37.68 3C34.62 3 33.1 5.63 31.48 8.42C30.75 9.69 30 10.98 29.09 12ZM17 12L20.91 12C20 10.98 19.25 9.69 18.52 8.42C16.9 5.63 15.38 3 12.32 3C10.12 3 9 4.01 9 6C9 9.76 13.07 12 17 12ZM19 24L5 24L5 47L19 47L19 24ZM19 15L3 15L3 22L19 22L19 15ZM29 15L21 15L21 47L29 47L29 15ZM45 24L31 24L31 47L45 47L45 24ZM47 15L31 15L31 22L47 22L47 15Z" class="shp0"/></svg>