<svg xmlns="http://www.w3.org/2000/svg" xmlns:xlink="http://www.w3.org/1999/xlink" id="Layer_1" x="0" y="0" enable-background="new 0 0 48 48" version="1.1" viewBox="0 0 48 48" xml:space="preserve"><style type="text/css">.st0{fill:#3d2d48}.st1{fill:none}</style><g><image width="58" height="58" opacity=".75" overflow="visible" transform="matrix(1 0 0 1 -5 -5)" xlink:href="ACF05219.png"/><g><path d="M24,4C12.9,4,4,12.9,4,24s8.9,20,20,20s20-9,20-20S35,4,24,4z M24,40c-8.8,0-16-7.2-16-16S15.2,8,24,8 s16,7.2,16,16S32.8,40,24,40z" class="st0"/></g></g><path d="M0,0h48v48H0V0z" class="st1"/><g><image width="30" height="37" opacity=".75" overflow="visible" transform="matrix(1 0 0 1 13 5)" xlink:href="ACF0521F.png"/><g><polygon points="25 14 22 14 22 26 32.5 32.3 34 29.8 25 24.5" class="st0"/></g></g></svg>