<?xml version="1.0" encoding="utf-8"?>
<!-- Generator: Adobe Illustrator 23.0.0, SVG Export Plug-In . SVG Version: 6.00 Build 0)  -->
<svg version="1.1" id="Layer_1" xmlns="http://www.w3.org/2000/svg" xmlns:xlink="http://www.w3.org/1999/xlink" x="0px" y="0px"
	 viewBox="0 0 48 48" style="enable-background:new 0 0 48 48;" xml:space="preserve">
<style type="text/css">
	.st0{fill:#3D2D48;}
	.st1{fill:none;}
</style>
<g>
	
		<image style="overflow:visible;opacity:0.75;" width="58" height="58" xlink:href="ACF05219.png"  transform="matrix(1 0 0 1 -5 -5)">
	</image>
	<g>
		<path class="st0" d="M24,4C12.9,4,4,12.9,4,24s8.9,20,20,20s20-9,20-20S35,4,24,4z M24,40c-8.8,0-16-7.2-16-16S15.2,8,24,8
			s16,7.2,16,16S32.8,40,24,40z"/>
	</g>
</g>
<path class="st1" d="M0,0h48v48H0V0z"/>
<g>
	
		<image style="overflow:visible;opacity:0.75;" width="30" height="37" xlink:href="ACF0521F.png"  transform="matrix(1 0 0 1 13 5)">
	</image>
	<g>
		<polygon class="st0" points="25,14 22,14 22,26 32.5,32.3 34,29.8 25,24.5 		"/>
	</g>
</g>
</svg>
