<svg xmlns="http://www.w3.org/2000/svg" width="48" height="48" viewBox="0 0 48 48"><style>.shp0{fill:#3d2d48}.shp1{fill:none}</style><path id="Layer" d="M24 28C27.31 28 29.98 25.31 29.98 22L30 10C30 6.68 27.32 4 24 4C20.69 4 18 6.68 18 10L18 22C18 25.31 20.69 28 24 28ZM34.6 22C34.6 28 29.53 32.2 24 32.2C18.48 32.2 13.4 28 13.4 22L10 22C10 28.83 15.44 34.47 22 35.44L22 42L26 42L26 35.44C32.56 34.47 38 28.83 38 22L34.6 22Z" class="shp0"/><path id="Layer" d="M0 0L48 0L48 48L0 48L0 0Z" class="shp1"/></svg>