<svg xmlns="http://www.w3.org/2000/svg" width="48" height="48" viewBox="0 0 48 48"><style>.shp0{fill:none}.shp1{fill:#3d2d48}</style><path id="Layer" d="M0 0L48 0L48 48L0 48L0 0Z" class="shp0"/><path id="Layer" fill-rule="evenodd" d="M46 32.5L46 38L2 38L2 32.5C2 28.17 10.67 26 15 26C17.41 26 21.15 26.67 24 28.01C26.85 26.67 30.59 26 33 26C37.33 26 46 28.17 46 32.5ZM25 32.5C25 31.43 19.88 29 15 29C10.12 29 5 31.43 5 32.5L5 35L25 35L25 32.5ZM43 32.5C43 31.43 37.88 29 33 29C30.89 29 28.73 29.46 26.96 30.06C27.6 30.78 28 31.59 28 32.5L28 35L43 35L43 32.5ZM8 17C8 13.14 11.14 10 15 10C18.87 10 22 13.14 22 17C22 20.86 18.87 24 15 24C11.14 24 8 20.86 8 17ZM11 17C11 19.21 12.79 21 15 21C17.21 21 19 19.21 19 17C19 14.79 17.21 13 15 13C12.79 13 11 14.79 11 17ZM26 17C26 13.14 29.14 10 33 10C36.87 10 40 13.14 40 17C40 20.86 36.87 24 33 24C29.14 24 26 20.86 26 17ZM29 17C29 19.21 30.79 21 33 21C35.21 21 37 19.21 37 17C37 14.79 35.21 13 33 13C30.79 13 29 14.79 29 17Z" class="shp1"/></svg>