<svg xmlns="http://www.w3.org/2000/svg" viewBox="0 0 39.33 39.34"><defs><style>.cls-1,.cls-2{fill:#b3b3b3;}.cls-2{fill-rule:evenodd;}</style></defs><title>Asset 1</title><g id="Layer_2" data-name="Layer 2"><g id="Layer_1-2" data-name="Layer 1"><path class="cls-1" d="M19.66,1A18.71,18.71,0,1,1,1,19.67,18.71,18.71,0,0,1,19.66,1m0-1A19.67,19.67,0,1,0,39.33,19.67,19.68,19.68,0,0,0,19.66,0"/><path class="cls-2" d="M27.11,9.57H12.23a2.41,2.41,0,0,0-2.69,2.7V27.13a2.37,2.37,0,0,0,2.6,2.64h15a2.4,2.4,0,0,0,2.68-2.66V12.22a2.4,2.4,0,0,0-2.68-2.64m-1.64,2.29c2,0,2,0,2,2s0,2-2,2-2,0-2-2,0-2,2-2m-5.79,3.88a3.91,3.91,0,1,1-3.94,3.89,4,4,0,0,1,3.94-3.89m7.79,10.53c0,.94-.26,1.2-1.2,1.2H13.05c-.93,0-1.19-.26-1.19-1.2,0-2.44,0-4.92,0-7.38,0-.7.19-.85.84-.83.92.08.94,0,.84.94a6.19,6.19,0,1,0,12.24-.49c-.07-.36,0-.42.33-.42,1.4-.11,1.4-.13,1.4,1.32Z"/></g></g></svg>