<?xml version="1.0" encoding="iso-8859-1"?>
<!-- Generator: Adobe Illustrator 19.0.0, SVG Export Plug-In . SVG Version: 6.00 Build 0)  -->
<svg xmlns="http://www.w3.org/2000/svg" xmlns:xlink="http://www.w3.org/1999/xlink" version="1.1" id="Layer_1" x="0px" y="0px" viewBox="0 0 409.602 409.602" style="enable-background:new 0 0 409.602 409.602;" xml:space="preserve" width="512px" height="512px">
<g>
	<g>
		<path d="M349.617,59.988C310.938,21.305,259.504,0,204.801,0S98.672,21.305,59.988,59.988C21.305,98.672,0,150.098,0,204.801    c0,54.711,21.305,106.14,59.988,144.82c38.68,38.68,90.11,59.981,144.813,59.981c54.707,0,106.137-21.301,144.816-59.981    c38.68-38.68,59.985-90.109,59.985-144.82C409.602,150.098,388.297,98.668,349.617,59.988L349.617,59.988z M340.566,340.57    c-36.261,36.262-84.476,56.231-135.765,56.231c-51.285,0-99.5-19.969-135.762-56.231c-36.266-36.261-56.238-84.48-56.238-135.769    c0-51.281,19.972-99.496,56.238-135.762s84.481-56.238,135.762-56.238c51.285,0,99.5,19.972,135.765,56.238    c36.262,36.262,56.235,84.477,56.235,135.762C396.801,256.094,376.828,304.309,340.566,340.57L340.566,340.57z M340.566,340.57" fill="#FFFFFF"/>
	</g>
	<g>
		<path d="M258.59,102.125h-107.18c-27.176,0-49.285,22.11-49.285,49.286v107.179c0,27.177,22.109,49.286,49.285,49.286h107.18    c27.176,0,49.284-22.109,49.284-49.286V151.411C307.874,124.235,285.766,102.125,258.59,102.125z M294.898,258.589    c0,20.02-16.288,36.309-36.308,36.309h-107.18c-20.019,0-36.305-16.289-36.305-36.309V151.411    c0-20.019,16.287-36.305,36.305-36.305h107.18c20.02,0,36.308,16.287,36.308,36.305V258.589z" fill="#FFFFFF"/>
		<path d="M262.503,139.728c-4.358,0-7.904,3.545-7.904,7.901c0,4.356,3.546,7.9,7.904,7.9c4.356,0,7.9-3.544,7.9-7.9    C270.403,143.273,266.859,139.728,262.503,139.728z" fill="#FFFFFF"/>
		<path d="M204.998,154.57c-27.806,0-50.428,22.622-50.428,50.428c0,27.808,22.622,50.432,50.428,50.432    c27.808,0,50.432-22.624,50.432-50.432C255.43,177.192,232.806,154.57,204.998,154.57z M204.998,242.454    c-20.652,0-37.453-16.803-37.453-37.456c0-20.648,16.801-37.446,37.453-37.446c20.65,0,37.449,16.798,37.449,37.446    C242.448,225.651,225.648,242.454,204.998,242.454z" fill="#FFFFFF"/>
	</g>
</g>
<g>
</g>
<g>
</g>
<g>
</g>
<g>
</g>
<g>
</g>
<g>
</g>
<g>
</g>
<g>
</g>
<g>
</g>
<g>
</g>
<g>
</g>
<g>
</g>
<g>
</g>
<g>
</g>
<g>
</g>
</svg>
