<svg xmlns="http://www.w3.org/2000/svg" viewBox="0 0 140.8 140.81"><defs><style>.cls-1{fill:#85d3c1;}.cls-2{fill:#ff958a;}.cls-3{fill:#f9d48a;}.cls-4{fill:#f5f7fa;}.cls-5{fill:#232323;}</style></defs><title>Asset 2</title><g id="Layer_2" data-name="Layer 2"><g id="Layer_1-2" data-name="Layer 1"><path class="cls-1" d="M138.53,70.4A68.13,68.13,0,1,1,70.4,2.27,68.13,68.13,0,0,1,138.53,70.4"/><path class="cls-2" d="M104.47,33.86v.2S90.84,38.61,70.4,38.61a129.49,129.49,0,0,1-29.32-3.25c-3.06-.73-4.75-1.29-4.75-1.29V15.9h68.13Z"/><path class="cls-3" d="M118.09,50c2.5,0,4.54,6.59,4.54,9.09a4.54,4.54,0,0,1-9.08,0c0-1.91,1.2-6.22,2.89-8.13a2.32,2.32,0,0,1,1.66-1"/><path class="cls-3" d="M119.87,63.23a53.4,53.4,0,0,1,.5,7.18,49.84,49.84,0,0,1-5.5,22.8l-1.32-.09-5.47-5.47a4.56,4.56,0,0,1-1.34-3.22V77.76a4.54,4.54,0,0,0-2.52-4.06l-6.09-3a9.13,9.13,0,0,1-5-8.13V55.23a9.07,9.07,0,0,1,4.59-7.88L109,40.88l1.09-.79a50.14,50.14,0,0,1,6.34,10.83c-1.68,1.91-2.88,6.22-2.88,8.13a4.53,4.53,0,0,0,6.31,4.18"/><path class="cls-3" d="M61.32,63.59V109a5.64,5.64,0,0,1-5.52-4.43l-3.57-16H49.1a5.94,5.94,0,0,0-6,6,5.79,5.79,0,0,0,.07.86h-.07a6.8,6.8,0,0,1-6.81-6.81,6.8,6.8,0,0,0-6.81-6.81H21.76a49.87,49.87,0,0,1,14.58-47.9v.2s1.68.57,4.75,1.29l-.2,1V44a4.54,4.54,0,0,0,3.66,4.45l4,.82a4.54,4.54,0,0,1,3.66,4.45v4.09a4.52,4.52,0,0,0,3.43,4.41Z"/><path class="cls-4" d="M43.4,96.22l5.84,19.44A49.94,49.94,0,0,1,21.76,81.76h7.77a6.8,6.8,0,0,1,6.81,6.81,6.8,6.8,0,0,0,6.81,6.81h.07c0,.27.11.54.18.84"/><path class="cls-4" d="M114.87,93.2a50.1,50.1,0,0,1-17.22,19.08V88.57a4.54,4.54,0,0,0-9.08,0V84A4.57,4.57,0,0,0,84,79.49,4.55,4.55,0,0,0,79.49,84V79.49a4.57,4.57,0,0,0-4.54-4.54,4.55,4.55,0,0,0-4.54,4.54V61.32a4.54,4.54,0,0,0-9.08,0v2.27l-5.66-1.41a4.52,4.52,0,0,1-3.43-4.41V53.69a4.54,4.54,0,0,0-3.66-4.45l-4-.82A4.54,4.54,0,0,1,40.88,44V36.34l.2-1A129.52,129.52,0,0,0,70.4,38.61c20.44,0,34.07-4.54,34.07-4.54v-.2a50.39,50.39,0,0,1,5.63,6.22l-1.09.79L97.7,47.35a9.07,9.07,0,0,0-4.59,7.88v7.29a9.13,9.13,0,0,0,5,8.13l6.09,3a4.54,4.54,0,0,1,2.52,4.07v6.65a4.56,4.56,0,0,0,1.34,3.22l5.47,5.47Z"/><path class="cls-4" d="M88.57,88.57a4.54,4.54,0,0,1,9.08,0v25.75A9.09,9.09,0,0,1,95,120.75l-1.5,1.5a9.09,9.09,0,0,0-2.66,6.43v6.72a67.62,67.62,0,0,1-20.44,3.13,69,69,0,0,1-13.63-1.36v-8.49a9.09,9.09,0,0,0-2.66-6.43l-2.54-2.54a9,9,0,0,1-2.27-3.82l-.07-.23L43.4,96.22c-.07-.29-.14-.57-.18-.84a5.77,5.77,0,0,1-.07-.86,5.94,5.94,0,0,1,5.95-6h3.13l3.57,16A5.64,5.64,0,0,0,61.32,109V61.32a4.54,4.54,0,0,1,9.08,0V79.49a4.56,4.56,0,0,1,4.54-4.54,4.57,4.57,0,0,1,4.54,4.54V84A4.55,4.55,0,0,1,84,79.49,4.57,4.57,0,0,1,88.57,84Z"/><path class="cls-5" d="M120.37,20.82V13.63a6.82,6.82,0,0,0-6.81-6.81h-2.27V4.54A4.55,4.55,0,0,0,106.74,0H34.06a4.55,4.55,0,0,0-4.54,4.54v8.57a70.39,70.39,0,1,0,90.84,7.7M118.09,70.4a47.67,47.67,0,0,1-4.28,19.76L109.67,86a2.29,2.29,0,0,1-.66-1.61V77.75a6.78,6.78,0,0,0-3.77-6.1l-6.09-3a6.77,6.77,0,0,1-3.77-6.09V55.23a6.83,6.83,0,0,1,3.43-5.92l10.75-6.14a47.48,47.48,0,0,1,4.24,7.54A19.22,19.22,0,0,0,111.28,59a6.8,6.8,0,0,0,6.57,6.79c.14,1.51.24,3,.24,4.57m-25,11.35a6.79,6.79,0,0,0-2.54.5,6.75,6.75,0,0,0-9.08-4.54,6.8,6.8,0,0,0-6.55-5,6.72,6.72,0,0,0-2.27.42V61.32a6.8,6.8,0,0,0-13.56-.62L56.23,60a2.27,2.27,0,0,1-1.72-2.21V53.69A6.83,6.83,0,0,0,49,47L45,46.2A2.28,2.28,0,0,1,43.15,44V38.15A133.25,133.25,0,0,0,70.4,40.88,124.12,124.12,0,0,0,104,36.59c1,1,1.91,1.93,2.79,3L96.56,45.38a11.39,11.39,0,0,0-5.72,9.86v7.28a11.29,11.29,0,0,0,6.28,10.16l6.1,3a2.26,2.26,0,0,1,1.25,2v6.67a6.76,6.76,0,0,0,2,4.82l5.15,5.15a47.63,47.63,0,0,1-11.69,13.44V88.57a6.82,6.82,0,0,0-6.81-6.81M41.41,97.47,45.47,111A48,48,0,0,1,24.72,84h4.8a4.55,4.55,0,0,1,4.54,4.54,9.09,9.09,0,0,0,7.34,8.9m-.28-4.86a4.53,4.53,0,0,1-2.52-4,9.09,9.09,0,0,0-9.08-9.08H23.62a47.23,47.23,0,0,1-.91-9.08A47.86,47.86,0,0,1,36.8,36.58l1.81.5V44a6.83,6.83,0,0,0,5.48,6.68l4.05.81A2.28,2.28,0,0,1,50,53.69v4.08a6.81,6.81,0,0,0,5.16,6.61l3.93,1v40.51a3.37,3.37,0,0,1-1-1.79l-4-17.79h-5a8.21,8.21,0,0,0-8,6.31M102.2,18.17v14.2a123,123,0,0,1-31.8,4,123,123,0,0,1-31.8-4V18.17Zm13.63,4.58V44.63a51.9,51.9,0,0,0-9.08-11.69V18.17a4.5,4.5,0,0,0,2.61-.84,66.43,66.43,0,0,1,6.47,5.42m2.27,29.68A14.06,14.06,0,0,1,120.37,59a2.27,2.27,0,1,1-4.54,0,14.08,14.08,0,0,1,2.27-6.62m-4.54-41.07a2.27,2.27,0,0,1,2.27,2.27v3q-2.19-1.85-4.54-3.54V11.36ZM34.06,4.54h72.68v9.08H34.06ZM4.54,70.4A65.88,65.88,0,0,1,31.45,17.33a4.51,4.51,0,0,0,2.61.84V32.9A52.2,52.2,0,0,0,47.4,117.28a11.38,11.38,0,0,0,2.58,4l2.53,2.53a6.76,6.76,0,0,1,2,4.82v5.64a66,66,0,0,1-50-63.91M59,135.26v-6.59a11.28,11.28,0,0,0-3.33-8l-2.53-2.53a6.83,6.83,0,0,1-1.71-2.86L45.57,95.57a3.63,3.63,0,0,1-.15-1.06,3.67,3.67,0,0,1,3.67-3.67h1.32l3.16,14.23a7.88,7.88,0,0,0,7.74,6.21h2.27v-50a2.27,2.27,0,1,1,4.54,0v45.42h4.54V79.49a2.27,2.27,0,1,1,4.54,0v27.25h4.54V84a2.27,2.27,0,1,1,4.54,0v22.71h4.54V88.57a2.27,2.27,0,1,1,4.54,0v25.76a6.77,6.77,0,0,1-2,4.82l-1.49,1.49a11.29,11.29,0,0,0-3.33,8v5A65.35,65.35,0,0,1,59,135.26m34.07-3v-3.55a6.76,6.76,0,0,1,2-4.82l1.49-1.49a11.29,11.29,0,0,0,3.33-8v-.86A52.08,52.08,0,0,0,122.64,70.4a53.37,53.37,0,0,0-.37-6A6.77,6.77,0,0,0,124.91,59c0-2.17-1.43-8.42-4.54-10.59V27.53a65.83,65.83,0,0,1-27.25,104.7"/></g></g></svg>