<svg xmlns="http://www.w3.org/2000/svg" viewBox="0 0 192.95 46.69"><defs><style>.cls-1{fill:#ff006f;}</style></defs><title>Asset 2</title><g id="Layer_2" data-name="Layer 2"><g id="Layer_1-2" data-name="Layer 1"><path class="cls-1" d="M25.3,4.72,23.6,8.48a18.15,18.15,0,0,0-9.69-3c-4.52,0-7.48,1.71-7.48,4.67,0,9,19.78,4.32,19.73,17.07,0,5.87-5.17,9.64-12.7,9.64A20.06,20.06,0,0,1,0,31.53l1.81-3.61a17.48,17.48,0,0,0,11.7,5c5.07,0,8.23-2.06,8.23-5.42C21.79,18.22,2,23.14,2,10.54,2,5,6.88,1.46,14.16,1.46A20.79,20.79,0,0,1,25.3,4.72"/><path class="cls-1" d="M50.25,32.68c-2.11,2.86-5.47,4.27-9.69,4.27-5.47,0-9-3.51-9-8.08s3.66-7.53,9.89-7.58h8.68V19.73c0-3.87-2.41-6.17-7.08-6.17a14.65,14.65,0,0,0-8.38,3L33,13.7c3.41-2.26,6.27-3.56,10.79-3.56C50.35,10.14,54,13.6,54,19.28l.05,17.47H50.25Zm0-5.07V24.45H42c-4.42,0-6.73,1.36-6.73,4.27s2.36,4.82,6.07,4.82c4.47,0,7.88-2.26,8.89-5.92"/><path class="cls-1" d="M106.52,20.43V36.75H102.6V21.49c0-4.72-2.76-7.48-7.33-7.48-5.47.15-8.63,4.07-8.63,9.74v13h-4V21.49C82.67,16.77,80,14,75.34,14c-5.42.15-8.68,4.07-8.68,9.74v13H62.79V10.29h3.87v6c1.76-4.12,5.32-6.07,10.09-6.12,5,0,8.38,2.56,9.49,6.93,1.66-4.67,5.37-6.88,10.44-6.93,6.17,0,9.84,3.92,9.84,10.29"/><path class="cls-1" d="M119.66,2.71a2.56,2.56,0,1,1-5.12,0,2.56,2.56,0,1,1,5.12,0m-4.47,7.58h3.87V36.75h-3.87Z"/><path class="cls-1" d="M142.25,34.94a11.06,11.06,0,0,1-6,2c-3.86,0-6.73-2.31-6.73-7.53V14.31h-3.82V11.15h3.82v-7h3.87v7l8.38-.05v3.21h-8.38V28.72c0,3.21,1.25,4.42,3.51,4.42a8,8,0,0,0,4.22-1.36Z"/><path class="cls-1" d="M156.61,40.51c-1.66,4.07-4.42,6.18-7.93,6.18a8.39,8.39,0,0,1-5.57-2l1.66-3.26a6.25,6.25,0,0,0,3.71,1.26c2.06,0,3.77-1.26,4.82-3.72l1.1-2.46L143.45,10.29h4.12l8.79,21.84,8.38-21.84h4Z"/><path class="cls-1" d="M189.13,32.68c-2.11,2.86-5.47,4.27-9.69,4.27-5.47,0-9-3.51-9-8.08s3.66-7.53,9.89-7.58H189V19.73c0-3.87-2.41-6.17-7.08-6.17a14.65,14.65,0,0,0-8.38,3l-1.66-2.86c3.41-2.26,6.27-3.56,10.79-3.56,6.53,0,10.14,3.46,10.19,9.14l.05,17.47h-3.82Zm0-5.07V24.45h-8.23c-4.42,0-6.73,1.36-6.73,4.27s2.36,4.82,6.07,4.82c4.47,0,7.88-2.26,8.89-5.92"/></g></g></svg>