<svg xmlns="http://www.w3.org/2000/svg" viewBox="0 0 39.34 39.34"><defs><style>.cls-1,.cls-2{fill:#b3b3b3;}.cls-2{fill-rule:evenodd;}</style></defs><title>Asset 1</title><g id="Layer_2" data-name="Layer 2"><g id="Layer_1-2" data-name="Layer 1"><path class="cls-1" d="M19.68,1A18.71,18.71,0,1,1,1,19.67,18.71,18.71,0,0,1,19.68,1m0-1A19.67,19.67,0,1,0,39.34,19.67,19.7,19.7,0,0,0,19.68,0"/><path class="cls-2" d="M7.75,27.29a10.65,10.65,0,0,0,5.13-.88,9.31,9.31,0,0,0,2.06-1.24,4.94,4.94,0,0,1-2.13-.53A4.83,4.83,0,0,1,10.46,22c-.1-.26-.1-.26.18-.24a4,4,0,0,0,1.8-.11,5.12,5.12,0,0,1-1.16-.44A4.94,4.94,0,0,1,8.63,17c0-.22,0-.24.24-.15a4.76,4.76,0,0,0,1.93.52c-.31-.28-.58-.51-.83-.75a5,5,0,0,1-.78-5.57c.12-.24.17-.24.33-.05a13.94,13.94,0,0,0,8.58,4.79c.35.07.73.07,1.09.15s.27-.08.23-.26a4.92,4.92,0,0,1,8.23-4.43.55.55,0,0,0,.54.13,9.14,9.14,0,0,0,2.6-1,.5.5,0,0,0,.21-.13A4.85,4.85,0,0,1,28.94,13a10.22,10.22,0,0,0,2.65-.69c0,.11-.07.18-.12.28a10,10,0,0,1-2,2.08.41.41,0,0,0-.18.39,14.31,14.31,0,0,1-3.39,9.61,13.24,13.24,0,0,1-8.21,4.6,14,14,0,0,1-9.78-1.9.17.17,0,0,0-.1-.05"/></g></g></svg>