<svg xmlns="http://www.w3.org/2000/svg" viewBox="0 0 189.09 189.09"><defs><style>.cls-1{fill:#85d3c1;stroke:#333;stroke-miterlimit:10;stroke-width:7px}.cls-2{fill:#e76e54}.cls-3{fill:#fff}</style></defs><title>video</title><g id="Layer_2" data-name="Layer 2"><g id="Layer_1-2" data-name="Layer 1"><path d="M185.59,94.54a91,91,0,1,1-91-91A91.06,91.06,0,0,1,185.59,94.54Z" class="cls-1"/><path d="M86.51,67.71l-29-29a4,4,0,0,1,5.62-5.62l29,29Z" class="cls-2"/><path d="M100.08,67.71l-5.62-5.63,29-29a4,4,0,0,1,5.62,5.62Z" class="cls-2"/><path d="M45.59,69.69H141a8,8,0,0,1,7.95,8v63.61A8,8,0,0,1,141,149.2H45.59a8,8,0,0,1-8-7.95V77.64A8,8,0,0,1,45.59,69.69Z" class="cls-2"/><path d="M69.44,135.76V83.14l52.62,26.31Z" class="cls-3"/><path d="M45.59,93.55h7.95v8H45.59Z" class="cls-3"/><path d="M45.59,117.4h7.95v7.95H45.59Z" class="cls-3"/><path d="M133.05,93.55H141v8h-7.95Z" class="cls-3"/><path d="M133.05,117.4H141v7.95h-7.95Z" class="cls-3"/></g></g></svg>