<svg xmlns="http://www.w3.org/2000/svg" viewBox="0 0 39.35 39.34"><defs><style>.cls-1,.cls-2{fill:#b3b3b3}.cls-2{fill-rule:evenodd}</style></defs><title>Asset 1</title><g id="Layer_2" data-name="Layer 2"><g id="Layer_1-2" data-name="Layer 1"><path d="M19.67,1A18.71,18.71,0,1,1,1,19.67,18.71,18.71,0,0,1,19.67,1m0-1A19.67,19.67,0,1,0,39.35,19.67,19.69,19.69,0,0,0,19.67,0" class="cls-1"/><path d="M30.76,17a11.37,11.37,0,0,0-11.1-8.78,16.45,16.45,0,0,0-2.17.22A11.37,11.37,0,0,0,9.7,25a.74.74,0,0,1,.1.57c-.53,1.74-1,3.53-1.49,5.29-.08.31-.08.31.21.23,1.84-.51,3.67-1,5.51-1.43a.48.48,0,0,1,.41,0A11.38,11.38,0,0,0,30.76,17M21.27,28.9A5.28,5.28,0,0,1,20,29a9.89,9.89,0,0,1-5.13-1.31.59.59,0,0,0-.58-.09c-1,.25-2,.52-3.05.78-.21.06-.23,0-.18-.18.27-.94.52-1.9.82-2.88a.7.7,0,0,0-.12-.67A9.41,9.41,0,0,1,12,14.06a9,9,0,0,1,9.62-3.7,8.9,8.9,0,0,1,7.22,7.18A9.38,9.38,0,0,1,21.27,28.9" class="cls-2"/><path d="M22.64,25a3,3,0,0,1-1.18-.15,11.59,11.59,0,0,1-6.16-4.53A6.42,6.42,0,0,1,14,17.64a3.09,3.09,0,0,1,1-3,1.71,1.71,0,0,1,1.52-.23,1.23,1.23,0,0,1,.25.3c.32.81.67,1.56,1,2.33a.62.62,0,0,1,0,.49,4.72,4.72,0,0,1-.7.94.42.42,0,0,0-.07.62,7.64,7.64,0,0,0,3.89,3.34.46.46,0,0,0,.58-.13c.29-.34.58-.72.85-1.07a.48.48,0,0,1,.63-.15c.56.24,1.11.51,1.64.75l.38.19c.56.28.56.31.5.92a2.39,2.39,0,0,1-2,2.08,1.86,1.86,0,0,1-.76,0" class="cls-2"/></g></g></svg>