<svg xmlns="http://www.w3.org/2000/svg" width="512" height="512"><rect id="backgroundrect" width="100%" height="100%" x="0" y="0" fill="none" stroke="none"/><g class="currentLayer"><title>Layer 1</title><g id="svg_1" fill="#fff" fill-opacity="1" class="selected"><path id="svg_2" fill="#fff" fill-opacity="1" d="m224.90090090036392,512 c-123.519531,0 -224,-100.480469 -224,-224 s100.480469,-224 224,-224 s224,100.480469 224,224 s-100.480469,224 -224,224 zm0,-416 c-105.878906,0 -192,86.144531 -192,192 s86.121094,192 192,192 s192,-86.144531 192,-192 s-86.121094,-192 -192,-192 zm0,0" class="active-path" data-old_color="#3d2d48" data-original="#000000"/><path id="svg_3" fill="#fff" fill-opacity="1" d="m224.90090090036392,304 c-8.832031,0 -16,-7.167969 -16,-16 v-122.667969 c0,-8.832031 7.167969,-16 16,-16 s16,7.167969 16,16 v122.667969 c0,8.832031 -7.167969,16 -16,16 zm0,0" class="active-path" data-old_color="#3d2d48" data-original="#000000"/><path id="svg_4" fill="#fff" fill-opacity="1" d="m299.56886990036395,32 h-149.335938 c-8.832031,0 -16,-7.167969 -16,-16 s7.167969,-16 16,-16 h149.335938 c8.832031,0 16,7.167969 16,16 s-7.167969,16 -16,16 zm0,0" class="active-path" data-old_color="#3d2d48" data-original="#000000"/><path id="svg_5" fill="#fff" fill-opacity="1" d="m224.90090090036392,96 c-8.832031,0 -16,-7.167969 -16,-16 v-64 c0,-8.832031 7.167969,-16 16,-16 s16,7.167969 16,16 v64 c0,8.832031 -7.167969,16 -16,16 zm0,0" class="active-path" data-old_color="#3d2d48" data-original="#000000"/><path id="svg_6" fill="#fff" fill-opacity="1" d="m371.8891819003639,157.011719 c-4.097656,0 -8.195312,-1.554688 -11.308593,-4.691407 c-6.25,-6.25 -6.25,-16.382812 0,-22.636718000000002 l50.347656,-50.34375 c6.269531,-6.273438 16.40625,-6.230469 22.632812,0 c6.25,6.25 6.25,16.382812 0,22.632812 l-50.34375,50.347656 c-3.160156,3.1367190000000003 -7.234375,4.691407 -11.328125,4.691407 zm0,0" class="active-path" data-old_color="#3d2d48" data-original="#000000"/></g></g></svg>